<svg id="svg" version="1.1" xmlns="http://www.w3.org/2000/svg" xmlns:xlink="http://www.w3.org/1999/xlink" width="400" height="335.3191489361702" viewBox="0, 0, 400,335.3191489361702"><g id="svgg"><path id="path0" d="M180.369 18.484 C 132.622 21.643,86.748 49.887,64.594 89.765 C 63.512 91.712,62.014 94.052,61.692 94.296 C 61.570 94.389,61.214 95.106,60.900 95.890 C 60.586 96.674,60.195 97.315,60.031 97.315 C 59.866 97.315,59.732 97.512,59.732 97.752 C 59.732 98.369,58.942 99.994,58.641 99.997 C 58.503 99.999,58.389 100.140,58.389 100.311 C 58.389 100.482,57.861 101.766,57.215 103.165 C 56.569 104.563,56.040 105.839,56.040 106.001 C 56.040 106.162,55.819 106.478,55.548 106.703 C 55.277 106.927,55.081 107.210,55.113 107.331 C 55.191 107.626,54.340 110.148,54.021 110.570 C 53.881 110.755,53.489 111.812,53.151 112.919 C 52.812 114.027,52.438 115.008,52.319 115.101 C 52.200 115.193,51.829 116.439,51.493 117.869 C 51.158 119.299,50.771 120.470,50.634 120.470 C 50.496 120.470,50.216 121.338,50.012 122.399 C 49.807 123.461,49.433 124.796,49.180 125.366 C 48.927 125.937,48.523 127.598,48.284 129.057 C 48.044 130.517,47.749 131.787,47.627 131.879 C 47.506 131.971,47.147 133.859,46.831 136.074 C 46.515 138.289,46.130 140.403,45.974 140.772 C 45.513 141.870,44.947 148.708,44.732 155.789 C 44.621 159.434,44.418 162.416,44.280 162.416 C 44.143 162.416,44.150 162.982,44.295 163.674 C 44.440 164.367,44.660 167.644,44.783 170.958 C 44.906 174.271,45.211 178.122,45.461 179.515 C 45.711 180.908,46.010 182.878,46.127 183.893 C 46.643 188.405,48.278 195.995,50.501 204.195 C 51.391 207.476,53.607 213.782,55.239 217.675 C 56.077 219.673,56.923 221.740,57.118 222.267 C 57.863 224.278,62.239 232.809,64.355 236.376 C 92.319 283.513,141.394 310.357,195.909 308.337 C 295.219 304.657,361.341 202.354,324.481 109.414 C 319.333 96.435,306.369 74.846,300.691 69.799 C 300.587 69.706,299.187 68.108,297.579 66.246 C 291.984 59.766,282.589 51.309,274.669 45.622 C 247.028 25.772,213.976 16.261,180.369 18.484 M172.761 38.088 C 182.535 39.167,186.328 47.574,179.098 52.135 C 177.510 53.136,173.249 54.969,171.141 55.556 C 149.133 61.691,121.046 84.082,109.860 104.411 C 101.907 118.863,99.823 121.820,95.989 124.091 C 93.097 125.804,89.597 124.986,86.958 121.980 C 77.055 110.702,90.138 77.888,111.577 60.233 C 126.165 48.219,147.916 39.069,164.597 37.928 C 168.237 37.679,169.237 37.699,172.761 38.088 M233.557 77.515 C 245.171 79.203,252.992 83.996,257.018 91.890 C 260.574 98.863,260.612 111.020,257.098 117.554 C 252.994 125.184,240.551 126.509,234.246 119.987 L 233.089 118.791 235.046 117.046 C 245.227 107.972,245.031 91.092,234.705 87.734 C 223.283 84.018,209.500 96.231,200.599 117.953 C 186.420 152.555,182.607 194.645,192.437 208.036 C 200.803 219.434,222.386 219.164,239.933 207.442 C 242.663 205.618,250.071 198.636,251.541 196.501 L 252.217 195.519 254.213 196.318 C 257.642 197.691,257.625 197.568,255.062 202.685 C 244.902 222.964,221.780 236.628,197.651 236.613 C 180.202 236.601,168.318 231.876,160.923 222.009 C 144.927 200.666,151.785 139.819,173.917 106.711 C 188.907 84.289,209.800 74.061,233.557 77.515 " stroke="none" fill="#fccb33" fill-rule="evenodd"></path><path id="path1" d="M219.463 77.387 C 187.657 80.299,162.723 111.788,154.859 158.976 C 154.575 160.682,154.273 162.268,154.188 162.499 C 153.121 165.418,152.074 186.116,152.664 192.621 C 155.531 224.177,167.635 235.996,197.148 236.057 C 222.280 236.108,244.343 223.225,254.782 202.403 C 257.143 197.693,257.153 198.015,254.622 196.859 L 252.532 195.904 250.853 197.868 C 232.562 219.262,199.832 223.619,190.726 205.872 C 183.732 192.241,185.706 161.786,195.621 130.369 C 196.514 127.541,197.594 124.450,197.968 123.658 C 198.141 123.289,198.910 121.401,199.675 119.463 C 206.850 101.299,217.511 88.749,227.204 87.057 C 239.516 84.907,246.119 94.573,241.391 107.825 C 239.736 112.465,236.725 116.783,233.997 118.432 C 232.660 119.239,237.932 122.732,241.710 123.543 C 253.723 126.119,261.345 115.750,259.059 99.942 C 256.790 84.254,241.237 75.394,219.463 77.387 " stroke="none" fill="#fcfbfb" fill-rule="evenodd"></path><path id="path2" d="M164.597 37.928 C 147.916 39.069,126.165 48.219,111.577 60.233 C 90.138 77.888,77.055 110.702,86.958 121.980 C 89.597 124.986,93.097 125.804,95.989 124.091 C 99.823 121.820,101.907 118.863,109.860 104.411 C 121.046 84.082,149.133 61.691,171.141 55.556 C 173.249 54.969,177.510 53.136,179.098 52.135 C 186.328 47.574,182.535 39.167,172.761 38.088 C 169.237 37.699,168.237 37.679,164.597 37.928 M222.582 77.095 C 224.021 77.158,226.286 77.158,227.616 77.094 C 228.946 77.031,227.768 76.979,225.000 76.980 C 222.232 76.980,221.144 77.032,222.582 77.095 M180.348 98.070 L 179.362 99.161 180.453 98.175 C 181.053 97.633,181.544 97.143,181.544 97.085 C 181.544 96.826,181.267 97.054,180.348 98.070 M259.474 108.389 C 259.474 109.035,259.543 109.299,259.627 108.977 C 259.712 108.654,259.712 108.125,259.627 107.802 C 259.543 107.479,259.474 107.743,259.474 108.389 M235.888 116.359 L 234.732 117.617 235.990 116.461 C 237.161 115.385,237.403 115.101,237.146 115.101 C 237.090 115.101,236.524 115.667,235.888 116.359 M152.117 185.067 C 152.119 186.174,152.182 186.587,152.257 185.984 C 152.331 185.381,152.330 184.475,152.253 183.971 C 152.177 183.466,152.116 183.960,152.117 185.067 M246.970 201.594 L 244.799 203.859 247.064 201.688 C 248.310 200.493,249.329 199.474,249.329 199.422 C 249.329 199.175,248.987 199.490,246.970 201.594 M193.289 209.501 C 193.289 209.559,193.779 210.049,194.379 210.592 L 195.470 211.577 194.484 210.487 C 193.565 209.470,193.289 209.242,193.289 209.501 M244.295 217.282 C 243.480 218.112,242.889 218.792,242.981 218.792 C 243.073 218.792,243.816 218.112,244.631 217.282 C 245.446 216.451,246.037 215.772,245.945 215.772 C 245.853 215.772,245.110 216.451,244.295 217.282 M208.142 216.348 C 208.652 216.425,209.407 216.423,209.820 216.344 C 210.233 216.264,209.815 216.201,208.893 216.203 C 207.970 216.206,207.632 216.271,208.142 216.348 M214.178 216.348 C 214.685 216.425,215.516 216.425,216.023 216.348 C 216.531 216.271,216.116 216.208,215.101 216.208 C 214.086 216.208,213.670 216.271,214.178 216.348 M191.695 236.482 C 192.202 236.559,193.033 236.559,193.540 236.482 C 194.048 236.405,193.633 236.342,192.617 236.342 C 191.602 236.342,191.187 236.405,191.695 236.482 M201.930 236.478 C 202.345 236.558,203.024 236.558,203.440 236.478 C 203.855 236.398,203.515 236.333,202.685 236.333 C 201.854 236.333,201.514 236.398,201.930 236.478 " stroke="none" fill="#fcf374" fill-rule="evenodd"></path><path id="path3" d="M186.246 10.464 C 183.757 10.629,181.575 10.909,181.397 11.086 C 181.219 11.264,180.538 11.409,179.883 11.407 C 178.230 11.405,170.340 12.497,170.134 12.757 C 170.042 12.874,168.645 13.163,167.030 13.399 C 165.415 13.635,164.094 13.936,164.094 14.067 C 164.094 14.199,162.659 14.577,160.906 14.907 C 159.153 15.237,157.718 15.616,157.718 15.749 C 157.718 15.882,156.699 16.179,155.454 16.409 C 154.209 16.638,152.736 17.028,152.182 17.276 C 151.628 17.524,150.344 17.979,149.329 18.289 C 148.314 18.598,147.030 19.053,146.477 19.299 C 145.923 19.545,145.017 19.857,144.463 19.992 C 143.909 20.127,143.381 20.335,143.289 20.455 C 143.066 20.743,140.197 21.812,139.646 21.812 C 139.408 21.812,139.018 22.008,138.779 22.247 C 138.540 22.486,137.682 22.895,136.873 23.156 C 136.064 23.416,135.327 23.720,135.235 23.830 C 135.143 23.941,134.539 24.241,133.893 24.497 C 133.247 24.753,132.643 25.049,132.550 25.156 C 132.458 25.263,130.739 26.158,128.730 27.146 C 125.386 28.790,121.214 31.099,120.805 31.533 C 120.713 31.631,120.109 31.976,119.463 32.300 C 118.349 32.858,113.972 35.569,113.255 36.145 C 113.070 36.293,112.470 36.703,111.921 37.056 C 111.372 37.409,110.627 37.974,110.264 38.312 C 109.902 38.650,109.412 38.926,109.177 38.926 C 108.941 38.926,108.587 39.228,108.389 39.597 C 108.192 39.966,107.868 40.268,107.671 40.268 C 107.473 40.268,106.901 40.608,106.400 41.023 C 105.899 41.439,104.979 42.156,104.355 42.617 C 103.732 43.079,102.950 43.721,102.618 44.044 C 102.285 44.367,101.902 44.631,101.765 44.631 C 101.629 44.631,101.138 44.997,100.675 45.445 C 97.999 48.029,96.539 49.329,96.312 49.329 C 95.749 49.329,83.283 62.137,80.673 65.396 C 80.321 65.835,79.694 66.574,79.279 67.039 C 78.863 67.503,78.523 67.974,78.522 68.086 C 78.521 68.197,77.842 69.037,77.012 69.952 C 76.182 70.867,75.503 71.707,75.503 71.819 C 75.503 71.930,75.222 72.323,74.878 72.693 C 74.533 73.062,74.066 73.713,73.838 74.138 C 73.610 74.564,72.759 75.786,71.947 76.854 C 71.134 77.922,70.470 78.881,70.470 78.985 C 70.470 79.217,68.452 82.191,67.869 82.818 C 67.638 83.066,67.450 83.467,67.450 83.708 C 67.450 83.949,67.220 84.336,66.940 84.569 C 66.660 84.801,66.177 85.537,65.867 86.204 C 65.557 86.871,65.205 87.492,65.084 87.584 C 64.963 87.676,64.586 88.356,64.245 89.094 C 63.904 89.832,63.521 90.512,63.394 90.604 C 63.168 90.768,62.081 93.201,62.081 93.543 C 62.081 93.902,63.342 92.035,64.405 90.101 C 65.730 87.691,68.492 83.439,71.271 79.530 C 118.167 13.567,208.955 -1.568,274.669 45.622 C 282.589 51.309,291.984 59.766,297.579 66.246 C 299.187 68.108,300.587 69.706,300.691 69.799 C 301.364 70.397,306.969 77.731,309.060 80.750 C 344.395 131.752,343.251 200.070,306.227 249.832 C 248.908 326.874,134.621 328.203,75.302 252.517 C 68.441 243.763,59.687 229.200,57.118 222.267 C 56.923 221.740,56.077 219.673,55.239 217.675 C 53.607 213.782,51.391 207.476,50.501 204.195 C 48.181 195.635,46.734 188.837,45.967 182.886 C 45.765 181.317,45.475 179.430,45.322 178.691 L 45.044 177.349 45.004 179.195 C 44.951 181.670,45.606 188.256,45.988 189.094 C 46.157 189.463,46.534 191.650,46.826 193.953 C 47.119 196.256,47.472 198.219,47.612 198.315 C 47.751 198.411,48.061 199.622,48.300 201.007 C 48.539 202.391,48.920 203.977,49.147 204.530 C 49.374 205.084,49.762 206.556,50.009 207.802 C 50.256 209.048,50.562 210.067,50.689 210.067 C 50.816 210.067,51.100 211.011,51.321 212.164 C 51.543 213.318,51.996 214.796,52.330 215.450 C 52.663 216.103,53.050 217.160,53.191 217.799 C 53.331 218.437,53.727 219.486,54.072 220.129 C 54.416 220.772,54.699 221.528,54.700 221.807 C 54.701 222.087,54.943 222.768,55.237 223.322 C 55.532 223.876,55.990 225.046,56.255 225.923 C 56.520 226.799,56.855 227.517,56.999 227.517 C 57.142 227.517,57.530 228.374,57.861 229.422 C 58.191 230.471,58.672 231.538,58.929 231.795 C 59.186 232.052,59.396 232.535,59.396 232.869 C 59.396 233.202,59.615 233.656,59.882 233.878 C 60.149 234.100,60.622 234.949,60.934 235.765 C 61.246 236.581,61.607 237.248,61.736 237.248 C 61.866 237.248,62.254 238.079,62.599 239.094 C 62.944 240.109,63.329 240.940,63.454 240.940 C 63.579 240.940,63.938 241.430,64.251 242.030 C 66.232 245.829,67.779 248.322,68.154 248.322 C 68.320 248.322,68.456 248.519,68.456 248.760 C 68.456 249.001,69.249 250.384,70.218 251.834 C 71.187 253.283,72.131 254.709,72.315 255.003 C 72.500 255.297,72.840 255.658,73.070 255.805 C 73.301 255.953,73.490 256.284,73.490 256.541 C 73.490 256.798,73.754 257.209,74.077 257.453 C 74.650 257.885,75.281 258.744,75.732 259.706 C 75.855 259.969,76.193 260.438,76.484 260.748 C 76.775 261.059,77.391 261.803,77.852 262.403 C 78.314 263.002,78.842 263.666,79.027 263.878 C 79.211 264.089,79.873 264.866,80.496 265.604 C 84.020 269.775,85.196 271.040,89.978 275.809 C 92.864 278.686,95.960 281.666,96.858 282.431 C 97.755 283.196,99.112 284.367,99.873 285.032 C 100.634 285.697,101.344 286.242,101.452 286.242 C 101.559 286.242,102.015 286.581,102.464 286.997 C 104.298 288.692,105.971 290.032,107.733 291.214 C 108.757 291.901,109.814 292.649,110.082 292.877 C 111.027 293.678,114.081 295.638,114.386 295.638 C 114.555 295.638,114.780 295.864,114.886 296.141 C 114.993 296.418,115.282 296.644,115.530 296.644 C 115.778 296.644,116.296 296.938,116.681 297.297 C 117.344 297.915,117.898 298.240,120.991 299.832 C 121.708 300.201,122.564 300.768,122.892 301.091 C 123.221 301.414,123.706 301.678,123.969 301.678 C 124.233 301.678,124.654 301.883,124.906 302.135 C 125.157 302.386,126.564 303.166,128.034 303.868 C 129.503 304.570,130.780 305.247,130.872 305.372 C 130.965 305.496,131.757 305.869,132.634 306.200 C 133.510 306.531,134.933 307.159,135.795 307.596 C 136.657 308.032,137.563 308.389,137.809 308.389 C 138.054 308.389,138.255 308.520,138.255 308.681 C 138.255 308.841,139.161 309.226,140.268 309.537 C 141.376 309.848,142.282 310.216,142.282 310.357 C 142.282 310.497,143.037 310.805,143.960 311.041 C 144.883 311.278,145.638 311.581,145.638 311.715 C 145.638 311.848,146.801 312.232,148.223 312.567 C 149.645 312.903,150.997 313.365,151.226 313.594 C 151.456 313.824,152.633 314.198,153.842 314.426 C 155.051 314.654,156.040 314.947,156.040 315.077 C 156.040 315.207,157.060 315.516,158.305 315.763 C 159.551 316.010,161.023 316.398,161.577 316.625 C 162.131 316.852,163.716 317.224,165.101 317.450 C 166.485 317.677,167.771 317.985,167.958 318.135 C 168.145 318.285,170.486 318.678,173.159 319.008 C 175.833 319.338,178.096 319.708,178.188 319.829 C 179.013 320.913,208.328 321.429,216.779 320.508 C 219.086 320.256,221.162 320.044,221.393 320.036 C 221.623 320.029,221.812 319.917,221.812 319.789 C 221.812 319.661,222.927 319.455,224.289 319.331 C 225.652 319.208,227.879 318.891,229.239 318.627 C 234.851 317.537,238.334 316.760,238.866 316.480 C 239.176 316.316,240.336 315.997,241.443 315.770 C 242.550 315.543,243.532 315.256,243.624 315.132 C 243.716 315.007,244.962 314.634,246.393 314.303 C 247.823 313.972,248.993 313.587,248.993 313.448 C 248.993 313.308,249.858 313.001,250.914 312.764 C 252.653 312.375,253.833 311.933,256.879 310.531 C 257.433 310.276,258.679 309.835,259.648 309.551 C 260.617 309.267,261.409 308.901,261.409 308.738 C 261.409 308.576,261.900 308.340,262.500 308.215 C 263.100 308.090,264.195 307.647,264.933 307.229 C 265.671 306.812,266.663 306.378,267.136 306.265 C 267.610 306.151,268.350 305.752,268.781 305.378 C 269.213 305.004,269.758 304.698,269.994 304.698 C 270.229 304.698,270.621 304.498,270.866 304.254 C 271.110 304.010,272.026 303.537,272.903 303.202 C 273.779 302.867,274.497 302.475,274.497 302.330 C 274.497 302.185,274.939 301.970,275.480 301.851 C 276.021 301.732,276.646 301.415,276.869 301.147 C 277.091 300.878,277.819 300.405,278.486 300.095 C 279.153 299.785,279.773 299.432,279.866 299.309 C 279.958 299.187,280.517 298.840,281.107 298.537 C 281.697 298.235,282.881 297.496,283.737 296.896 C 284.593 296.296,285.545 295.652,285.852 295.465 C 286.926 294.808,289.431 293.125,289.597 292.948 C 289.690 292.850,290.214 292.483,290.763 292.133 C 291.312 291.783,291.916 291.373,292.105 291.221 C 292.295 291.070,293.526 290.076,294.843 289.013 C 296.159 287.950,297.635 286.792,298.123 286.439 C 298.612 286.087,299.362 285.483,299.791 285.097 C 300.220 284.712,301.311 283.772,302.215 283.009 C 303.119 282.247,304.705 280.812,305.739 279.822 C 306.773 278.831,308.623 277.079,309.850 275.929 C 311.077 274.778,312.081 273.744,312.081 273.629 C 312.081 273.514,313.100 272.386,314.346 271.121 C 315.591 269.856,317.064 268.270,317.617 267.596 C 319.461 265.351,320.102 264.603,320.792 263.891 C 321.169 263.502,321.477 263.071,321.477 262.933 C 321.477 262.795,322.194 261.812,323.070 260.749 C 326.112 257.061,326.498 256.541,326.504 256.124 C 326.507 255.893,326.647 255.705,326.814 255.705 C 326.981 255.705,327.547 255.008,328.072 254.156 C 329.409 251.987,329.595 251.692,330.628 250.091 C 331.131 249.310,331.544 248.517,331.544 248.329 C 331.544 248.141,331.698 247.987,331.888 247.987 C 332.077 247.987,332.389 247.647,332.582 247.232 C 332.775 246.816,333.337 245.784,333.832 244.938 C 334.327 244.093,335.092 242.733,335.532 241.918 C 335.972 241.103,336.449 240.360,336.592 240.267 C 336.735 240.175,337.119 239.420,337.446 238.590 C 337.773 237.760,338.140 237.005,338.260 236.913 C 338.447 236.769,339.530 234.547,341.449 230.369 C 342.703 227.638,343.567 225.591,343.787 224.832 C 343.920 224.371,344.218 223.691,344.447 223.322 C 344.677 222.953,345.052 222.047,345.280 221.309 C 345.509 220.570,345.891 219.513,346.131 218.960 C 346.370 218.406,346.763 217.160,347.004 216.191 C 347.245 215.222,347.540 214.430,347.660 214.430 C 347.779 214.430,348.157 213.184,348.500 211.661 C 348.842 210.138,349.247 208.806,349.400 208.701 C 349.552 208.596,349.844 207.539,350.048 206.352 C 350.253 205.166,350.540 204.042,350.687 203.856 C 350.834 203.670,351.200 202.160,351.499 200.500 C 351.798 198.841,352.178 197.181,352.344 196.812 C 352.700 196.017,353.691 189.144,353.691 187.467 C 353.691 186.824,353.827 186.247,353.992 186.186 C 354.542 185.981,355.156 175.123,355.156 165.604 C 355.156 156.085,354.542 145.227,353.992 145.022 C 353.827 144.961,353.691 144.435,353.691 143.853 C 353.691 142.302,352.700 135.514,352.360 134.732 C 352.199 134.362,351.820 132.630,351.517 130.883 C 351.214 129.135,350.844 127.549,350.695 127.359 C 350.545 127.169,350.225 125.994,349.982 124.748 C 349.740 123.503,349.438 122.483,349.311 122.483 C 349.184 122.483,348.896 121.539,348.670 120.386 C 348.444 119.232,347.990 117.685,347.662 116.946 C 347.333 116.208,346.872 114.777,346.635 113.767 C 346.399 112.756,346.002 111.726,345.754 111.478 C 345.505 111.229,345.297 110.772,345.292 110.463 C 345.286 110.153,344.910 109.144,344.456 108.221 C 344.002 107.299,343.629 106.290,343.627 105.980 C 343.626 105.671,343.435 105.218,343.205 104.974 C 342.974 104.730,342.496 103.662,342.143 102.601 C 341.791 101.539,341.381 100.671,341.234 100.671 C 341.086 100.671,340.795 100.029,340.586 99.245 C 340.377 98.461,340.018 97.592,339.789 97.315 C 339.560 97.039,339.166 96.284,338.913 95.638 C 338.661 94.992,338.282 94.312,338.071 94.128 C 337.860 93.943,337.484 93.263,337.235 92.617 C 336.987 91.971,336.678 91.367,336.550 91.275 C 336.422 91.183,336.065 90.579,335.758 89.933 C 334.988 88.315,334.124 86.792,333.090 85.229 C 332.609 84.502,332.215 83.822,332.215 83.718 C 332.215 83.614,332.063 83.346,331.878 83.123 C 331.049 82.126,329.195 79.177,329.195 78.857 C 329.195 78.662,328.968 78.416,328.691 78.309 C 328.414 78.203,328.186 77.944,328.185 77.733 C 328.183 77.522,327.656 76.669,327.015 75.839 C 326.373 75.008,325.731 74.178,325.589 73.993 C 325.447 73.809,325.041 73.207,324.687 72.657 C 324.333 72.106,323.692 71.277,323.263 70.814 C 322.834 70.352,322.483 69.865,322.483 69.733 C 322.483 69.602,322.143 69.142,321.728 68.713 C 321.313 68.284,320.445 67.277,319.799 66.476 C 317.373 63.470,311.160 56.744,309.109 54.904 C 308.674 54.514,307.250 53.100,305.944 51.762 C 304.638 50.424,303.452 49.329,303.308 49.329 C 303.165 49.329,302.431 48.725,301.678 47.987 C 300.925 47.248,300.219 46.644,300.109 46.644 C 299.999 46.644,299.578 46.305,299.173 45.889 C 298.257 44.950,297.302 44.182,296.079 43.401 C 295.559 43.069,294.937 42.530,294.696 42.204 C 294.455 41.878,294.115 41.611,293.941 41.611 C 293.767 41.611,293.360 41.380,293.037 41.099 C 291.031 39.351,290.431 38.906,289.562 38.521 C 289.028 38.285,288.591 37.992,288.591 37.871 C 288.591 37.678,288.073 37.311,285.584 35.738 C 285.292 35.554,284.580 35.063,284.002 34.648 C 283.423 34.232,282.780 33.893,282.572 33.893 C 282.364 33.893,282.114 33.685,282.017 33.432 C 281.920 33.178,281.169 32.694,280.350 32.356 C 279.530 32.018,278.859 31.632,278.859 31.497 C 278.859 31.363,278.554 31.157,278.182 31.038 C 277.809 30.920,276.563 30.254,275.413 29.558 C 274.263 28.862,271.963 27.636,270.302 26.833 C 268.641 26.030,267.206 25.274,267.114 25.151 C 267.022 25.029,266.418 24.756,265.772 24.545 C 265.126 24.333,263.854 23.783,262.946 23.322 C 262.039 22.860,261.019 22.483,260.681 22.483 C 260.344 22.483,260.067 22.340,260.067 22.165 C 260.067 21.990,259.161 21.593,258.054 21.282 C 256.946 20.971,256.040 20.598,256.040 20.452 C 256.040 20.307,255.549 20.081,254.950 19.950 C 254.350 19.820,253.482 19.557,253.020 19.365 C 250.618 18.369,246.542 17.021,244.463 16.534 C 243.171 16.232,242.039 15.878,241.946 15.748 C 241.854 15.618,240.495 15.261,238.926 14.954 C 237.357 14.648,235.772 14.262,235.403 14.098 C 235.034 13.933,233.599 13.624,232.215 13.410 C 230.831 13.196,229.396 12.887,229.027 12.722 C 228.272 12.386,221.043 11.409,219.306 11.409 C 218.685 11.409,218.126 11.278,218.065 11.117 C 217.732 10.245,196.214 9.804,186.246 10.464 M43.960 165.584 C 43.960 166.035,44.111 166.497,44.295 166.611 C 44.491 166.732,44.631 166.391,44.631 165.792 C 44.631 165.227,44.480 164.765,44.295 164.765 C 44.111 164.765,43.960 165.134,43.960 165.584 M44.744 174.497 C 44.744 175.881,44.803 176.447,44.875 175.755 C 44.948 175.063,44.948 173.930,44.875 173.238 C 44.803 172.546,44.744 173.112,44.744 174.497 " stroke="none" fill="#f4a404" fill-rule="evenodd"></path><path id="path4" d="M219.211 77.413 C 219.534 77.497,220.063 77.497,220.386 77.413 C 220.709 77.328,220.445 77.259,219.799 77.259 C 219.153 77.259,218.888 77.328,219.211 77.413 M229.786 77.419 C 230.203 77.499,230.807 77.496,231.128 77.412 C 231.449 77.328,231.107 77.262,230.369 77.266 C 229.631 77.270,229.368 77.338,229.786 77.419 M212.919 78.188 C 212.021 78.416,212.003 78.444,212.752 78.444 C 213.213 78.444,214.044 78.329,214.597 78.188 C 215.495 77.959,215.513 77.932,214.765 77.932 C 214.304 77.932,213.473 78.047,212.919 78.188 M235.738 78.188 C 237.158 78.549,238.376 78.549,237.248 78.188 C 236.787 78.040,236.032 77.922,235.570 77.926 C 234.817 77.931,234.834 77.958,235.738 78.188 M244.323 80.662 C 244.669 80.971,246.644 81.879,246.644 81.729 C 246.644 81.535,244.784 80.537,244.424 80.537 C 244.292 80.537,244.246 80.593,244.323 80.662 M202.517 81.525 C 201.779 81.875,201.269 82.173,201.385 82.188 C 201.711 82.230,204.027 81.220,204.027 81.036 C 204.027 80.811,204.026 80.811,202.517 81.525 M198.574 83.411 C 197.697 83.868,196.980 84.316,196.980 84.408 C 196.980 84.500,197.735 84.192,198.658 83.725 C 199.581 83.257,200.336 82.802,200.336 82.712 C 200.336 82.491,200.366 82.479,198.574 83.411 M252.517 86.242 C 253.238 86.980,253.903 87.584,253.995 87.584 C 254.088 87.584,253.573 86.980,252.852 86.242 C 252.131 85.503,251.466 84.899,251.374 84.899 C 251.282 84.899,251.796 85.503,252.517 86.242 M191.779 87.781 L 190.772 88.646 191.862 87.924 C 192.462 87.527,192.953 87.137,192.953 87.058 C 192.953 86.806,192.811 86.894,191.779 87.781 M223.490 88.087 C 223.029 88.351,222.802 88.567,222.987 88.567 C 223.171 88.567,223.700 88.351,224.161 88.087 C 224.622 87.823,224.849 87.608,224.664 87.608 C 224.480 87.608,223.951 87.823,223.490 88.087 M235.598 87.691 C 236.132 88.100,238.255 89.208,238.255 89.078 C 238.255 88.853,236.143 87.587,235.766 87.585 C 235.597 87.584,235.522 87.632,235.598 87.691 M254.698 88.926 C 255.092 89.480,255.490 89.933,255.583 89.933 C 255.675 89.933,255.428 89.480,255.034 88.926 C 254.639 88.372,254.241 87.919,254.149 87.919 C 254.057 87.919,254.304 88.372,254.698 88.926 M239.570 90.414 C 240.187 91.140,241.048 92.500,241.484 93.434 C 241.919 94.369,242.275 94.908,242.275 94.631 C 242.276 93.849,240.446 90.866,239.394 89.933 C 238.585 89.215,238.610 89.285,239.570 90.414 M256.208 91.275 C 256.494 91.829,256.804 92.282,256.896 92.282 C 256.989 92.282,256.830 91.829,256.544 91.275 C 256.257 90.721,255.948 90.268,255.855 90.268 C 255.763 90.268,255.922 90.721,256.208 91.275 M184.048 94.379 C 180.581 97.976,179.038 99.664,179.220 99.664 C 179.308 99.664,181.011 97.928,183.003 95.805 C 184.995 93.683,186.573 91.946,186.509 91.946 C 186.445 91.946,185.337 93.041,184.048 94.379 M214.922 94.379 L 212.919 96.477 215.017 94.474 C 216.170 93.372,217.114 92.428,217.114 92.376 C 217.114 92.128,216.783 92.431,214.922 94.379 M257.759 94.631 C 257.753 94.908,257.956 95.587,258.209 96.141 C 258.803 97.437,258.811 96.834,258.221 95.302 C 257.973 94.656,257.765 94.354,257.759 94.631 M242.718 99.664 C 242.718 100.680,242.781 101.095,242.858 100.587 C 242.935 100.080,242.935 99.249,242.858 98.742 C 242.781 98.234,242.718 98.649,242.718 99.664 M210.403 99.664 C 210.008 100.218,209.761 100.671,209.854 100.671 C 209.946 100.671,210.344 100.218,210.738 99.664 C 211.133 99.111,211.380 98.658,211.287 98.658 C 211.195 98.658,210.797 99.111,210.403 99.664 M176.846 102.685 C 176.451 103.238,176.204 103.691,176.297 103.691 C 176.389 103.691,176.787 103.238,177.181 102.685 C 177.575 102.131,177.823 101.678,177.730 101.678 C 177.638 101.678,177.240 102.131,176.846 102.685 M259.513 104.698 C 259.513 106.267,259.571 106.909,259.642 106.124 C 259.712 105.340,259.712 104.056,259.642 103.272 C 259.571 102.487,259.513 103.129,259.513 104.698 M175.168 105.034 C 174.774 105.587,174.526 106.040,174.619 106.040 C 174.711 106.040,175.109 105.587,175.503 105.034 C 175.898 104.480,176.145 104.027,176.052 104.027 C 175.960 104.027,175.562 104.480,175.168 105.034 M172.611 108.809 C 171.456 110.768,171.381 110.936,171.969 110.235 C 172.651 109.423,173.238 108.389,173.018 108.389 C 172.930 108.389,172.747 108.578,172.611 108.809 M259.138 109.396 C 259.138 110.042,259.207 110.306,259.292 109.983 C 259.376 109.660,259.376 109.132,259.292 108.809 C 259.207 108.486,259.138 108.750,259.138 109.396 M258.091 114.131 C 257.884 114.724,257.774 115.268,257.846 115.340 C 257.917 115.412,258.145 114.985,258.352 114.392 C 258.559 113.799,258.669 113.255,258.597 113.183 C 258.526 113.112,258.298 113.538,258.091 114.131 M235.745 116.568 C 233.768 118.595,234.003 118.627,236.185 116.628 C 237.088 115.802,238.247 114.297,237.847 114.471 C 237.795 114.494,236.849 115.438,235.745 116.568 M168.624 115.772 C 168.338 116.326,168.179 116.779,168.271 116.779 C 168.364 116.779,168.673 116.326,168.960 115.772 C 169.246 115.218,169.405 114.765,169.313 114.765 C 169.220 114.765,168.910 115.218,168.624 115.772 M167.342 118.304 C 166.554 119.957,166.665 120.239,167.489 118.676 C 167.863 117.967,168.110 117.327,168.037 117.254 C 167.965 117.182,167.652 117.654,167.342 118.304 M238.255 122.651 C 238.716 122.915,239.245 123.131,239.430 123.131 C 239.614 123.131,239.388 122.915,238.926 122.651 C 238.465 122.387,237.936 122.171,237.752 122.171 C 237.567 122.171,237.794 122.387,238.255 122.651 M250.503 122.998 C 249.660 123.404,249.633 123.450,250.336 123.281 C 250.797 123.170,251.318 122.945,251.493 122.781 C 251.928 122.375,251.689 122.427,250.503 122.998 M197.633 124.375 C 197.448 124.862,197.359 125.323,197.435 125.399 C 197.511 125.475,197.734 125.077,197.930 124.514 C 198.367 123.262,198.103 123.139,197.633 124.375 M244.044 124.066 C 244.551 124.143,245.382 124.143,245.889 124.066 C 246.397 123.989,245.982 123.926,244.966 123.926 C 243.951 123.926,243.536 123.989,244.044 124.066 M196.012 128.892 C 195.806 129.483,195.648 130.132,195.661 130.335 C 195.674 130.538,195.901 130.114,196.166 129.392 C 196.430 128.670,196.588 128.020,196.517 127.948 C 196.445 127.877,196.218 128.301,196.012 128.892 M194.362 134.128 C 193.866 135.746,194.106 135.986,194.631 134.396 C 194.852 133.725,194.968 133.111,194.888 133.031 C 194.809 132.952,194.572 133.445,194.362 134.128 M159.128 139.497 C 158.631 141.115,158.871 141.355,159.396 139.765 C 159.617 139.094,159.733 138.480,159.653 138.401 C 159.574 138.321,159.337 138.814,159.128 139.497 M192.809 139.453 C 192.686 139.945,192.650 140.412,192.729 140.491 C 192.808 140.571,192.973 140.233,193.097 139.741 C 193.220 139.249,193.257 138.782,193.177 138.703 C 193.098 138.624,192.933 138.962,192.809 139.453 M191.149 146.015 C 190.870 147.414,191.141 147.685,191.443 146.309 C 191.570 145.729,191.605 145.184,191.519 145.099 C 191.434 145.013,191.267 145.426,191.149 146.015 M155.914 152.055 C 155.635 153.454,155.906 153.725,156.208 152.349 C 156.335 151.769,156.370 151.224,156.284 151.139 C 156.199 151.053,156.032 151.466,155.914 152.055 M188.074 162.571 C 187.945 163.610,187.911 164.533,187.999 164.621 C 188.088 164.710,188.261 163.927,188.384 162.881 C 188.507 161.835,188.541 160.912,188.459 160.830 C 188.377 160.749,188.204 161.532,188.074 162.571 M187.662 166.443 C 187.662 167.089,187.731 167.353,187.815 167.030 C 187.900 166.707,187.900 166.179,187.815 165.856 C 187.731 165.533,187.662 165.797,187.662 166.443 M152.852 171.477 C 152.719 173.158,152.683 174.607,152.771 174.695 C 152.859 174.783,153.039 173.479,153.171 171.795 C 153.303 170.112,153.339 168.664,153.252 168.577 C 153.166 168.490,152.985 169.795,152.852 171.477 M186.997 174.664 C 187.001 175.403,187.070 175.665,187.150 175.248 C 187.230 174.830,187.227 174.226,187.143 173.905 C 187.059 173.585,186.994 173.926,186.997 174.664 M152.450 177.517 C 152.450 178.532,152.512 178.947,152.589 178.440 C 152.666 177.932,152.666 177.102,152.589 176.594 C 152.512 176.086,152.450 176.502,152.450 177.517 M186.718 183.054 C 186.718 186.745,186.767 188.301,186.827 186.511 C 186.887 184.721,186.888 181.701,186.828 179.800 C 186.768 177.898,186.718 179.362,186.718 183.054 M186.991 191.275 C 186.991 191.921,187.060 192.185,187.144 191.862 C 187.228 191.539,187.228 191.011,187.144 190.688 C 187.060 190.365,186.991 190.629,186.991 191.275 M152.440 192.282 C 152.440 193.112,152.506 193.452,152.586 193.037 C 152.666 192.622,152.666 191.942,152.586 191.527 C 152.506 191.112,152.440 191.451,152.440 192.282 M152.704 196.001 C 152.715 196.816,152.853 198.087,153.012 198.826 C 153.219 199.789,153.248 199.411,153.115 197.483 C 152.911 194.529,152.674 193.672,152.704 196.001 M187.976 198.154 C 187.971 198.523,188.096 199.128,188.255 199.497 C 188.622 200.352,188.622 199.470,188.255 198.322 C 188.039 197.648,187.984 197.615,187.976 198.154 M256.641 198.163 C 256.537 198.527,256.350 199.128,256.225 199.497 C 256.100 199.866,256.243 199.743,256.544 199.225 C 256.844 198.706,257.031 198.106,256.959 197.891 C 256.888 197.676,256.744 197.799,256.641 198.163 M247.467 201.426 L 246.141 202.852 247.567 201.526 C 248.893 200.292,249.147 200.000,248.894 200.000 C 248.839 200.000,248.197 200.642,247.467 201.426 M189.286 202.852 C 189.286 203.037,189.501 203.565,189.765 204.027 C 190.029 204.488,190.245 204.715,190.245 204.530 C 190.245 204.346,190.029 203.817,189.765 203.356 C 189.501 202.894,189.286 202.668,189.286 202.852 M154.429 206.208 C 154.429 206.577,154.550 207.257,154.698 207.718 C 154.911 208.382,154.967 208.417,154.967 207.886 C 154.967 207.517,154.846 206.837,154.698 206.376 C 154.485 205.712,154.429 205.677,154.429 206.208 M192.912 209.344 C 193.474 210.054,194.200 210.847,194.525 211.106 C 194.850 211.365,194.454 210.784,193.646 209.815 C 191.951 207.783,191.391 207.424,192.912 209.344 M236.997 209.435 C 235.853 210.167,235.483 210.659,236.493 210.104 C 237.263 209.680,238.469 208.748,238.255 208.741 C 238.163 208.738,237.596 209.050,236.997 209.435 M250.000 210.403 C 249.606 210.956,249.359 211.409,249.451 211.409 C 249.543 211.409,249.941 210.956,250.336 210.403 C 250.730 209.849,250.977 209.396,250.885 209.396 C 250.792 209.396,250.394 209.849,250.000 210.403 M155.897 211.745 C 156.020 212.206,156.261 212.810,156.432 213.087 C 156.649 213.437,156.675 213.335,156.519 212.752 C 156.396 212.290,156.155 211.686,155.984 211.409 C 155.768 211.060,155.741 211.162,155.897 211.745 M195.699 211.935 C 196.010 212.292,196.765 212.870,197.377 213.219 C 198.690 213.968,198.344 213.596,196.477 212.252 C 195.696 211.690,195.370 211.557,195.699 211.935 M230.872 212.584 C 230.411 212.848,230.185 213.063,230.369 213.063 C 230.554 213.063,231.082 212.848,231.544 212.584 C 232.005 212.320,232.232 212.104,232.047 212.104 C 231.862 212.104,231.334 212.320,230.872 212.584 M246.309 214.933 C 245.494 215.763,244.902 216.443,244.994 216.443 C 245.087 216.443,245.829 215.763,246.644 214.933 C 247.459 214.102,248.051 213.423,247.959 213.423 C 247.866 213.423,247.124 214.102,246.309 214.933 M199.329 214.262 C 199.790 214.526,200.319 214.741,200.503 214.741 C 200.688 214.741,200.461 214.526,200.000 214.262 C 199.539 213.998,199.010 213.782,198.826 213.782 C 198.641 213.782,198.867 213.998,199.329 214.262 M226.174 214.262 C 225.529 214.511,225.227 214.719,225.503 214.724 C 225.780 214.730,226.460 214.527,227.013 214.274 C 228.309 213.680,227.707 213.672,226.174 214.262 M157.071 214.597 C 157.071 214.782,157.287 215.310,157.550 215.772 C 157.814 216.233,158.030 216.460,158.030 216.275 C 158.030 216.091,157.814 215.562,157.550 215.101 C 157.287 214.639,157.071 214.413,157.071 214.597 M203.523 215.772 C 203.893 215.930,204.497 216.056,204.866 216.050 C 205.405 216.042,205.372 215.988,204.698 215.772 C 203.551 215.404,202.668 215.404,203.523 215.772 M218.792 215.964 L 216.611 216.410 218.595 216.228 C 219.686 216.127,220.894 215.918,221.279 215.762 C 222.256 215.367,221.356 215.440,218.792 215.964 M210.487 216.690 C 211.363 216.759,212.798 216.759,213.674 216.690 C 214.551 216.620,213.834 216.564,212.081 216.564 C 210.327 216.564,209.610 216.620,210.487 216.690 M241.443 219.704 C 240.151 220.926,239.698 221.461,240.436 220.892 C 241.729 219.896,244.249 217.433,243.942 217.466 C 243.859 217.474,242.735 218.482,241.443 219.704 M159.228 219.128 C 159.515 219.681,159.824 220.134,159.917 220.134 C 160.009 220.134,159.850 219.681,159.564 219.128 C 159.277 218.574,158.968 218.121,158.875 218.121 C 158.783 218.121,158.942 218.574,159.228 219.128 M160.373 221.085 C 160.554 221.423,160.965 221.914,161.287 222.175 C 161.650 222.470,161.569 222.235,161.075 221.560 C 160.194 220.356,159.863 220.133,160.373 221.085 M162.711 224.109 C 163.273 224.819,163.999 225.612,164.324 225.871 C 164.649 226.130,164.253 225.549,163.445 224.581 C 161.750 222.548,161.190 222.189,162.711 224.109 M165.101 226.603 C 165.101 226.667,165.591 227.079,166.191 227.518 C 166.866 228.012,167.101 228.093,166.806 227.730 C 166.359 227.180,165.101 226.348,165.101 226.603 M167.450 228.310 C 167.450 228.402,167.903 228.800,168.456 229.195 C 169.010 229.589,169.463 229.836,169.463 229.744 C 169.463 229.651,169.010 229.253,168.456 228.859 C 167.903 228.465,167.450 228.218,167.450 228.310 M176.678 233.401 C 177.232 233.655,177.911 233.858,178.188 233.852 C 178.465 233.846,178.163 233.638,177.517 233.389 C 175.985 232.799,175.382 232.808,176.678 233.401 M183.389 235.235 C 183.943 235.376,184.773 235.491,185.235 235.491 C 185.983 235.491,185.965 235.463,185.067 235.235 C 184.513 235.094,183.683 234.979,183.221 234.979 C 182.473 234.979,182.491 235.006,183.389 235.235 M209.228 235.235 C 208.330 235.463,208.312 235.491,209.060 235.491 C 209.522 235.491,210.352 235.376,210.906 235.235 C 211.804 235.006,211.822 234.979,211.074 234.979 C 210.612 234.979,209.782 235.094,209.228 235.235 M196.069 236.490 C 197.137 236.557,198.798 236.556,199.761 236.489 C 200.723 236.421,199.849 236.366,197.819 236.367 C 195.789 236.368,195.001 236.423,196.069 236.490 " stroke="none" fill="#fcecb1" fill-rule="evenodd"></path></g></svg>